<?xml version="1.0" encoding="utf-8"?>
<!-- Generator: Adobe Illustrator 15.0.0, SVG Export Plug-In  -->
<!DOCTYPE svg PUBLIC "-//W3C//DTD SVG 1.1//EN" "http://www.w3.org/Graphics/SVG/1.1/DTD/svg11.dtd" [
	<!ENTITY ns_flows "http://ns.adobe.com/Flows/1.0/">
]>
<svg version="1.1"
	 xmlns="http://www.w3.org/2000/svg" xmlns:xlink="http://www.w3.org/1999/xlink" xmlns:a="http://ns.adobe.com/AdobeSVGViewerExtensions/3.0/"
	 x="0px" y="0px" width="36px" height="36px" viewBox="-0.188 -0.228 36 36" enable-background="new -0.188 -0.228 36 36"
	 xml:space="preserve">
<defs>
</defs>
<path fill="#29ABE2" d="M17.813,0C8.012,0,0.04,7.973,0.04,17.772s7.973,17.772,17.773,17.772s17.771-7.973,17.771-17.772
	S27.613,0,17.813,0 M17.813,34.298c-9.113,0-16.526-7.414-16.526-16.526S8.7,1.247,17.813,1.247c9.111,0,16.525,7.413,16.525,16.525
	S26.923,34.298,17.813,34.298"/>
<polygon fill="#29ABE2" points="15.632,21.899 11.089,17.926 10.269,18.864 15.702,23.616 26.986,12.008 26.091,11.138 "/>
<path display="none" fill="#29ABE2" d="M35.625,7.266h-9.86l1.658-1.658c0.76-0.759,0.302-1.99-0.457-2.748l-2.29-2.291
	c-0.759-0.758-1.532-0.758-2.29,0l-4.575,4.573l-4.573-4.573c-0.758-0.758-1.531-0.758-2.289,0L8.658,2.859
	C7.9,3.618,7.44,4.848,8.2,5.607l1.659,1.658H0v9.23h1.781v16.272c0,1.602,1.298,2.899,2.899,2.899h26.079
	c1.602,0,2.899-1.298,2.899-2.899V16.496h1.966V7.266z M23.53,3.088l1.374,1.374l-2.805,2.803h-2.361
	c-0.045-0.082-0.092-0.163-0.144-0.242L23.53,3.088z M10.719,4.462l1.375-1.374l3.935,3.936c-0.052,0.079-0.099,0.16-0.143,0.242
	h-2.362L10.719,4.462z M1.295,8.561h14.733v6.64H1.295V8.561z M2.993,32.769V16.496h13.036v17.959H4.681
	C3.749,34.455,2.993,33.698,2.993,32.769 M32.445,32.769c0,0.93-0.758,1.687-1.686,1.687H19.583V16.496h12.861V32.769z
	 M34.329,15.201H19.583v-6.64h14.745V15.201z"/>
<path display="none" fill="#29ABE2" d="M34.456,5.976l-4.848-4.848c-0.714-0.713-1.649-1.071-2.585-1.071s-1.871,0.358-2.586,1.071
	L1.168,24.397c-1.429,1.429-1.429,3.744,0,5.172l4.847,4.846c0.715,0.714,1.651,1.073,2.587,1.073c0.936,0,1.871-0.359,2.585-1.073
	l23.269-23.268C35.884,9.719,35.884,7.404,34.456,5.976 M33.539,10.228L10.268,33.497c-0.446,0.445-1.038,0.69-1.666,0.69
	c-0.63,0-1.222-0.245-1.667-0.69l-4.846-4.848c-0.92-0.919-0.92-2.413,0-3.333l1.155-1.156l3.753,3.754l0.92-0.919l-3.753-3.756
	l1.355-1.354l1.846,1.847l0.919-0.918l-1.846-1.847l1.681-1.681l1.845,1.846l0.918-0.918l-1.845-1.847l1.356-1.355l3.752,3.754
	l0.919-0.919l-3.753-3.753l1.03-1.031l2.17,2.171l0.919-0.919l-2.17-2.171l1.68-1.681l2.171,2.172l0.918-0.919l-2.17-2.172
	l1.031-1.03l3.753,3.755l0.918-0.919l-3.752-3.754l1.031-1.03l2.17,2.171l0.918-0.919l-2.169-2.171l1.68-1.681l2.17,2.172
	l0.919-0.918l-2.17-2.172l1.03-1.031L27.14,7.77l0.92-0.919l-3.754-3.753l1.05-1.051c0.445-0.445,1.038-0.691,1.667-0.691
	s1.22,0.246,1.667,0.691l4.849,4.848c0.442,0.446,0.688,1.037,0.688,1.667C34.226,9.191,33.981,9.782,33.539,10.228"/>
<path display="none" fill="#29ABE2" d="M18.917,1.413c0.432,0,0.783,0.352,0.783,0.784v2.452V5.67l0.996,0.236
	c1.104,0.263,2.152,0.666,3.108,1.199l0.853,0.475l0.691-0.69l1.665-1.665c0.147-0.147,0.345-0.229,0.553-0.229
	c0.211,0,0.408,0.082,0.556,0.229l1.957,1.958c0.306,0.306,0.306,0.803,0,1.106l-1.58,1.58l-0.718,0.72l0.525,0.868
	c0.663,1.09,1.146,2.267,1.438,3.498l0.234,0.997H31h2.454c0.432,0,0.782,0.351,0.782,0.782v2.77c0,0.432-0.351,0.783-0.782,0.783
	h-2.63h-0.97l-0.273,0.93c-0.34,1.16-0.849,2.258-1.512,3.264l-0.58,0.881l0.746,0.746l1.497,1.494c0.305,0.305,0.304,0.801,0,1.105
	l-1.957,1.959c-0.148,0.148-0.346,0.229-0.555,0.229s-0.406-0.08-0.555-0.23L24.89,28.89l-0.663-0.664l-0.836,0.426
	c-0.852,0.432-1.76,0.764-2.695,0.984L19.7,29.872v1.023v2.453c0,0.432-0.352,0.783-0.783,0.783h-2.769
	c-0.432,0-0.783-0.352-0.783-0.783V30.72v-0.967l-0.927-0.275c-0.997-0.295-1.963-0.725-2.874-1.277l-0.869-0.525l-0.718,0.717
	l-1.926,1.928c-0.148,0.148-0.345,0.229-0.553,0.229c-0.209,0-0.406-0.08-0.554-0.229l-1.958-1.957
	c-0.304-0.307-0.304-0.803,0-1.109l2.01-2.012l0.691-0.689l-0.475-0.854c-0.433-0.777-0.782-1.613-1.038-2.482L5.9,20.286H4.932
	H2.303c-0.432,0-0.784-0.352-0.784-0.783v-2.77c0-0.431,0.352-0.782,0.784-0.782h2.452h1.024l0.235-0.997
	C6.234,14.019,6.567,13.112,7,12.259l0.423-0.837l-0.663-0.663L4.639,8.638C4.491,8.489,4.41,8.292,4.41,8.083
	c0-0.208,0.081-0.406,0.229-0.554l1.958-1.957c0.148-0.148,0.345-0.229,0.554-0.229c0.209,0,0.406,0.081,0.553,0.229l1.843,1.842
	l0.746,0.747l0.881-0.583c1.003-0.661,2.102-1.17,3.261-1.512l0.929-0.272V4.827v-2.63c0-0.432,0.351-0.784,0.783-0.784H18.917
	 M17.878,26.337c4.721,0,8.563-3.844,8.563-8.565c0-4.722-3.842-8.563-8.563-8.563c-4.721,0-8.563,3.84-8.563,8.563
	C9.316,22.493,13.157,26.337,17.878,26.337 M18.917,0.119h-2.769c-1.147,0-2.077,0.93-2.077,2.077v2.63
	c-1.294,0.38-2.508,0.946-3.609,1.672L8.62,4.657C8.214,4.251,7.682,4.049,7.151,4.049C6.619,4.048,6.088,4.251,5.682,4.657
	L3.724,6.614c-0.811,0.812-0.811,2.127,0,2.938l2.122,2.122c-0.476,0.937-0.843,1.936-1.091,2.983H2.303
	c-1.148,0-2.078,0.93-2.078,2.076v2.77c0,1.146,0.93,2.076,2.078,2.076h2.629c0.284,0.965,0.669,1.887,1.149,2.748L4.07,26.339
	c-0.81,0.813-0.812,2.125,0,2.938l1.958,1.959c0.405,0.404,0.938,0.607,1.469,0.607c0.531,0,1.062-0.203,1.469-0.607l1.926-1.928
	c0.987,0.6,2.048,1.078,3.178,1.412v2.629c0,1.148,0.93,2.078,2.077,2.078h2.769c1.146,0,2.076-0.93,2.076-2.078v-2.453
	c1.048-0.248,2.047-0.615,2.984-1.09l1.775,1.773c0.405,0.406,0.938,0.607,1.469,0.607s1.064-0.201,1.469-0.607l1.957-1.957
	c0.812-0.811,0.812-2.125,0-2.936l-1.495-1.496c0.727-1.102,1.293-2.314,1.673-3.611h2.63c1.147,0,2.076-0.93,2.076-2.076v-2.77
	c0-1.146-0.929-2.076-2.076-2.076H31c-0.326-1.386-0.868-2.686-1.587-3.872l1.58-1.579c0.811-0.812,0.811-2.127,0-2.938
	l-1.958-1.957c-0.404-0.406-0.938-0.609-1.47-0.609c-0.529,0-1.062,0.203-1.468,0.609l-1.665,1.664
	c-1.064-0.592-2.222-1.037-3.44-1.327V2.196C20.993,1.049,20.063,0.119,18.917,0.119 M17.878,25.04
	c-4.008,0-7.269-3.258-7.269-7.268c0-4.008,3.261-7.269,7.269-7.269c4.009,0,7.268,3.261,7.268,7.269
	C25.146,21.782,21.887,25.04,17.878,25.04"/>
</svg>
