<?xml version="1.0" encoding="utf-8"?>
<!-- Generator: Adobe Illustrator 15.0.0, SVG Export Plug-In  -->
<!DOCTYPE svg PUBLIC "-//W3C//DTD SVG 1.1//EN" "http://www.w3.org/Graphics/SVG/1.1/DTD/svg11.dtd" [
	<!ENTITY ns_flows "http://ns.adobe.com/Flows/1.0/">
]>
<svg version="1.1"
	 xmlns="http://www.w3.org/2000/svg" xmlns:xlink="http://www.w3.org/1999/xlink" xmlns:a="http://ns.adobe.com/AdobeSVGViewerExtensions/3.0/"
	 x="0px" y="0px" width="35px" height="35px" viewBox="-0.04 -0.08 35 35" enable-background="new -0.04 -0.08 35 35"
	 xml:space="preserve">
<defs>
</defs>
<path fill="#29ABE2" d="M18.487,1.28c0.427,0,0.774,0.348,0.774,0.775v2.425V5.49l0.985,0.234c1.093,0.26,2.128,0.659,3.075,1.186
	l0.844,0.469l0.684-0.683l1.646-1.646c0.146-0.146,0.342-0.227,0.548-0.227c0.207,0,0.401,0.081,0.548,0.227l1.937,1.936
	c0.302,0.303,0.302,0.794,0,1.095l-1.563,1.563l-0.71,0.711l0.521,0.859c0.655,1.078,1.133,2.242,1.42,3.459l0.232,0.986h1.013
	h2.427c0.427,0,0.774,0.348,0.774,0.774v2.739c0,0.428-0.348,0.775-0.774,0.775h-2.602h-0.958l-0.271,0.918
	c-0.337,1.148-0.84,2.234-1.494,3.227l-0.575,0.873l0.738,0.738l1.479,1.479c0.303,0.301,0.302,0.791,0,1.094l-1.936,1.936
	c-0.146,0.146-0.341,0.227-0.549,0.227c-0.206,0-0.401-0.08-0.548-0.227l-1.757-1.756l-0.656-0.654l-0.827,0.42
	c-0.843,0.428-1.739,0.754-2.666,0.973l-0.985,0.234v1.012v2.428c0,0.426-0.348,0.773-0.774,0.773h-2.738
	c-0.427,0-0.775-0.348-0.775-0.773v-2.602v-0.957l-0.917-0.271c-0.986-0.291-1.942-0.715-2.843-1.262l-0.859-0.521l-0.71,0.711
	L7.74,29.871c-0.146,0.146-0.341,0.225-0.547,0.225c-0.207,0-0.401-0.078-0.548-0.225l-1.938-1.938
	c-0.301-0.303-0.3-0.795,0.001-1.096l1.988-1.99l0.683-0.682l-0.47-0.844c-0.428-0.771-0.773-1.598-1.026-2.457l-0.271-0.918H4.655
	H2.055c-0.427,0-0.775-0.348-0.775-0.775v-2.739c0-0.426,0.348-0.774,0.775-0.774H4.48h1.012l0.233-0.986
	c0.218-0.925,0.547-1.822,0.975-2.666L7.12,11.18l-0.656-0.656L4.366,8.425C4.22,8.279,4.139,8.084,4.139,7.876
	c0-0.207,0.081-0.401,0.227-0.547l1.937-1.936C6.449,5.247,6.644,5.167,6.85,5.167s0.401,0.08,0.547,0.227L9.22,7.215l0.738,0.738
	l0.872-0.576c0.992-0.653,2.078-1.157,3.225-1.495l0.919-0.27V4.656V2.055c0-0.427,0.348-0.775,0.775-0.775H18.487 M17.46,25.93
	c4.67,0,8.47-3.801,8.47-8.47c0-4.671-3.8-8.469-8.47-8.469s-8.469,3.798-8.469,8.469C8.991,22.129,12.791,25.93,17.46,25.93
	 M18.487,0h-2.738c-1.135,0-2.055,0.92-2.055,2.055v2.601c-1.28,0.376-2.48,0.936-3.569,1.654L8.302,4.488
	C7.901,4.087,7.375,3.887,6.85,3.887c-0.526-0.001-1.051,0.2-1.453,0.602L3.461,6.424c-0.803,0.803-0.803,2.104,0,2.906l2.098,2.099
	c-0.47,0.927-0.833,1.915-1.079,2.951H2.055C0.919,14.379,0,15.299,0,16.433v2.739c0,1.135,0.919,2.055,2.055,2.055h2.601
	c0.281,0.953,0.662,1.865,1.137,2.717l-1.989,1.99c-0.801,0.803-0.802,2.102,0,2.904l1.938,1.938c0.401,0.4,0.927,0.602,1.453,0.602
	c0.525,0,1.051-0.201,1.452-0.602l1.905-1.906c0.976,0.592,2.026,1.066,3.144,1.396v2.602c0,1.135,0.92,2.053,2.055,2.053h2.738
	c1.135,0,2.055-0.918,2.055-2.053v-2.428c1.036-0.244,2.023-0.607,2.95-1.078l1.757,1.756c0.401,0.4,0.927,0.6,1.452,0.6
	c0.526,0,1.053-0.199,1.454-0.6l1.936-1.938c0.802-0.801,0.803-2.102,0-2.904l-1.479-1.479c0.718-1.09,1.277-2.289,1.654-3.57h2.602
	c1.135,0,2.055-0.92,2.055-2.055v-2.739c0-1.134-0.92-2.054-2.055-2.054H30.44c-0.323-1.371-0.859-2.657-1.57-3.829l1.563-1.563
	c0.803-0.802,0.803-2.104,0-2.906l-1.936-1.936c-0.401-0.401-0.927-0.602-1.453-0.602c-0.525,0-1.051,0.201-1.452,0.602
	l-1.647,1.646c-1.054-0.586-2.197-1.026-3.402-1.312V2.055C20.542,0.92,19.622,0,18.487,0 M17.46,24.65
	c-3.964,0-7.189-3.225-7.189-7.19c0-3.964,3.225-7.189,7.189-7.189c3.965,0,7.189,3.225,7.189,7.189
	C24.65,21.426,21.425,24.65,17.46,24.65"/>
</svg>
